<?xml version="1.0" encoding="UTF-8" standalone="no"?>
<!-- Created with Inkscape (http://www.inkscape.org/) -->

<svg
   width="212.22244mm"
   height="212.07631mm"
   viewBox="0 0 212.22244 212.07631"
   version="1.1"
   id="svg1"
   xml:space="preserve"
   xmlns:inkscape="http://www.inkscape.org/namespaces/inkscape"
   xmlns:sodipodi="http://sodipodi.sourceforge.net/DTD/sodipodi-0.dtd"
   xmlns="http://www.w3.org/2000/svg"
   xmlns:svg="http://www.w3.org/2000/svg"><sodipodi:namedview
     id="namedview1"
     pagecolor="#ffffff"
     bordercolor="#000000"
     borderopacity="0.25"
     inkscape:showpageshadow="2"
     inkscape:pageopacity="0.0"
     inkscape:pagecheckerboard="0"
     inkscape:deskcolor="#d1d1d1"
     inkscape:document-units="mm" /><defs
     id="defs1" /><g
     inkscape:label="Camada 1"
     inkscape:groupmode="layer"
     id="layer1"
     transform="translate(3.4176124,-29.066896)"><path
       style="fill:#ffffff;stroke:none"
       d="m 51.938124,29.394051 c -7.566759,0.99353 -14.722015,2.13845 -21.695835,5.51236 -16.782126,8.11911 -29.1044198,23.85134 -32.4314668,42.26494 -1.804691,9.9881 -0.906034,20.57346 -0.906034,30.691669 v 41.275 c 0,23.26208 -3.343332,48.4659 11.5028424,68.2625 9.7084744,12.94574 24.3033184,21.28694 40.3554924,23.20779 7.979742,0.95488 16.308421,0.34013 24.341668,0.34013 h 38.099999 28.31041 c 6.35055,0 12.74973,0.28856 19.05001,-0.60471 6.10366,-0.86539 12.22385,-2.77693 17.72708,-5.54624 15.90368,-8.00297 27.87582,-23.37031 31.15183,-40.94489 1.98155,-10.63026 1.12734,-21.76944 1.12734,-32.54375 V 117.6526 c 0,-21.460989 2.69689,-44.363959 -10.24486,-62.970829 -9.1834,-13.20335 -23.50218,-22.44149 -39.49681,-24.75754 -8.51471,-1.23293 -17.34198,-0.64246 -25.92917,-0.64246 h -35.189579 -30.1625 c -5.098034,0 -10.55622,-0.55134 -15.610417,0.11228 m 0.264583,18.74868 c 5.842138,-0.6897 12.107203,-0.0756 17.991667,-0.0756 h 35.454166 32.01458 c 6.02449,0 12.28472,-0.48679 18.25625,0.37788 10.46768,1.51574 19.95321,7.24307 26.22437,15.7617 9.86959,13.40668 7.6423,30.3627 7.6423,46.037509 v 53.18125 c 0,9.73745 1.26241,20.44185 -1.43602,29.89792 -4.24419,14.87283 -17.10035,26.24179 -32.43065,28.4617 -6.47841,0.9381 -13.30674,0.37788 -19.84375,0.37788 H 100.88604 68.077707 c -6.189193,0 -12.658336,0.53659 -18.785417,-0.42076 C 38.548089,220.06342 28.941969,214.15818 22.685332,205.22964 12.90999,191.27973 15.690206,172.90152 15.690206,156.81088 V 105.7463 c 0,-9.012689 -1.213264,-19.001259 1.099164,-27.781249 4.434845,-16.83852 18.438387,-27.81836 35.413337,-29.82237 m 105.304163,16.70936 c -14.35555,2.25964 -15.66248,23.40977 -1.32291,26.89788 2.00937,0.48878 4.05706,0.5151 6.08541,0.15291 1.7358,-0.30994 3.5633,-1.08475 5.02709,-2.05929 11.92658,-7.94032 4.26992,-27.20452 -9.78959,-24.9915 m -59.002079,15.87113 c -9.768654,1.28324 -18.809414,3.86262 -26.9875,9.6034 -5.956654,4.1814 -10.822136,9.3513 -14.815852,15.419729 -14.036607,21.32853 -10.177633,51.66698 8.465852,69.03258 12.400107,11.55015 29.093589,16.48329 45.772919,14.23645 7.35071,-0.9902 14.64611,-3.82987 20.90208,-7.77846 5.22095,-3.29533 9.78818,-7.43377 13.63951,-12.25515 18.89836,-23.65836 13.95218,-58.82975 -9.67076,-77.254649 -5.41254,-4.22156 -11.67347,-7.23251 -18.25625,-9.11099 -5.9517,-1.69841 -12.86893,-2.70488 -19.049999,-1.89291 m 0.52917,18.74868 c 4.157319,-0.49723 8.657849,-0.0659 12.699999,0.949309 4.12725,1.0366 8.1952,2.86501 11.64166,5.36699 19.9679,14.49585 20.08678,45.6837 -1.05833,59.30464 -4.92617,3.17327 -10.34271,4.9722 -16.13958,5.66547 -4.47853,0.53562 -9.472239,0.0297 -13.758336,-1.33842 -5.487326,-1.75148 -10.657053,-4.6221 -14.80625,-8.66389 -16.371018,-15.94719 -13.097005,-43.57097 5.810417,-55.88405 4.676846,-3.04569 10.096969,-4.74063 15.61042,-5.400049 z"
       id="path1" /></g></svg>
