<?xml version="1.0" encoding="UTF-8" standalone="no"?>
<!-- Created with Inkscape (http://www.inkscape.org/) -->

<svg
   width="34.876991mm"
   height="36.088894mm"
   viewBox="0 0 34.876991 36.088894"
   version="1.1"
   id="svg1"
   xml:space="preserve"
   inkscape:version="1.3.2 (091e20e, 2023-11-25, custom)"
   sodipodi:docname="julia2.svg"
   xmlns:inkscape="http://www.inkscape.org/namespaces/inkscape"
   xmlns:sodipodi="http://sodipodi.sourceforge.net/DTD/sodipodi-0.dtd"
   xmlns="http://www.w3.org/2000/svg"
   xmlns:svg="http://www.w3.org/2000/svg"><sodipodi:namedview
     id="namedview1"
     pagecolor="#ffffff"
     bordercolor="#000000"
     borderopacity="0.25"
     inkscape:showpageshadow="2"
     inkscape:pageopacity="0.0"
     inkscape:pagecheckerboard="0"
     inkscape:deskcolor="#d1d1d1"
     inkscape:document-units="mm"
     inkscape:zoom="0.7313903"
     inkscape:cx="188.68175"
     inkscape:cy="-71.7811"
     inkscape:window-width="1920"
     inkscape:window-height="1017"
     inkscape:window-x="-8"
     inkscape:window-y="-8"
     inkscape:window-maximized="1"
     inkscape:current-layer="layer1"
     showguides="true"><sodipodi:guide
       position="38.153678,301.30462"
       orientation="0,-1"
       id="guide2"
       inkscape:locked="false" /></sodipodi:namedview><defs
     id="defs1" /><g
     inkscape:label="Camada 1"
     inkscape:groupmode="layer"
     id="layer1"
     transform="translate(-6.7615701,-27.706483)"><path
       style="fill:none;stroke:#ffffff;stroke-width:0.982355;stroke-linecap:round;stroke-linejoin:round;stroke-dasharray:none;stroke-dashoffset:0"
       d="m 17.811072,32.117142 c 0,0 -1.617924,5.290251 0.824152,5.852178 2.442077,0.561929 3.095734,-4.10261 3.095734,-4.10261"
       id="path1"
       sodipodi:nodetypes="czc"
       inkscape:export-filename="..\GitHub\JuliaMeloArt\layout_images\svg\JM_escrito_preto.svg"
       inkscape:export-xdpi="96"
       inkscape:export-ydpi="96" /><path
       style="fill:none;stroke:#ffffff;stroke-width:0.982355;stroke-linecap:round;stroke-linejoin:round;stroke-dasharray:none;stroke-dashoffset:0"
       d="m 24.61883,28.450924 c 0,0 0.160285,3.600868 0.244511,4.358151 0.08422,0.757283 -0.173316,3.497449 -0.173316,3.497449"
       id="path2"
       sodipodi:nodetypes="czc" /><path
       style="fill:none;stroke:#ffffff;stroke-width:1.18284;stroke-linecap:round;stroke-linejoin:round;stroke-dasharray:none;stroke-dashoffset:0"
       d="m 28.23906,37.098431 c 0.26779,-1.245881 0.568427,-2.327525 0.663027,-4.439354"
       id="path3"
       sodipodi:nodetypes="cc" /><path
       style="fill:none;stroke:#ffffff;stroke-width:1.18284;stroke-linecap:round;stroke-linejoin:round;stroke-dasharray:none;stroke-dashoffset:0"
       d="m 28.502692,28.807842 -0.05668,-0.50994"
       id="path4"
       sodipodi:nodetypes="cc" /><path
       style="fill:none;stroke:#ffffff;stroke-width:0.982355;stroke-linecap:round;stroke-linejoin:round;stroke-dasharray:none;stroke-dashoffset:0"
       d="m 32.426642,30.032501 c 0,0 0.735874,-1.013669 1.854748,-1.258185 1.118874,-0.244515 1.881241,0.114835 2.37952,0.762329 0.498278,0.647488 -0.441142,3.588678 -0.441142,3.588678 0,0 -2.916399,0.512777 -3.805125,1.360976 -0.888728,0.848199 -1.322215,3.034049 0.677502,2.945176 1.999716,-0.08887 3.127623,-4.306152 3.127623,-4.306152 l -0.02267,3.852869"
       id="path5"
       sodipodi:nodetypes="czzczzcc" /><path
       style="fill:none;stroke:#ffffff;stroke-width:0.982355;stroke-linecap:round;stroke-linejoin:round;stroke-dasharray:none;stroke-dashoffset:0"
       d="m 16.754656,52.930394 c 0.998676,-3.01987 1.75809,-6.039739 2.505367,-9.05961 0.04431,1.464685 0.238907,2.929372 0.709693,4.394057 1.34631,-1.219568 2.696648,-2.435909 3.626235,-3.988854 -0.436008,2.719674 -0.944061,5.439345 -0.679922,8.159018"
       id="path6"
       sodipodi:nodetypes="ccccc" /><path
       style="fill:none;stroke:#ffffff;stroke-width:0.982355;stroke-linecap:round;stroke-linejoin:round;stroke-dasharray:none;stroke-dashoffset:0"
       d="m 30.836855,52.30969 c 0,0 -2.249915,2.201106 -3.39748,1.762842 -1.147564,-0.438265 -1.657683,-1.548177 -1.395062,-3.796869 0.205206,-1.75727 0.660516,-3.175171 1.918922,-3.938577 1.258396,-0.763404 3.101897,-0.235296 2.424592,1.403494 -0.677306,1.63879 -4.343514,2.535083 -4.343514,2.535083"
       id="path7"
       sodipodi:nodetypes="czszzc" /><path
       style="fill:none;stroke:#ffffff;stroke-width:0.982355;stroke-linecap:round;stroke-linejoin:round;stroke-dasharray:none;stroke-dashoffset:0"
       d="m 34.145396,44.408956 c 0.400913,3.015893 0.10012,6.031786 0.124999,9.04768"
       id="path8"
       sodipodi:nodetypes="cc" /><path
       style="fill:none;stroke:#ffffff;stroke-width:1.06772;stroke-linecap:round;stroke-linejoin:round;stroke-dasharray:none;stroke-dashoffset:0"
       d="m 39.861469,46.843372 c -1.319158,-0.171151 -2.055637,2.096998 -2.299239,3.344344 -0.243602,1.247346 -0.490871,3.147635 0.766413,3.483694 1.257286,0.33606 2.380442,-1.801007 2.647244,-3.135323 0.266801,-1.334314 0.204807,-3.521545 -1.114418,-3.692715 z"
       id="path9"
       sodipodi:nodetypes="zzzzz" /><path
       style="fill:none;stroke:#ffffff;stroke-width:1.18284;stroke-linecap:round;stroke-linejoin:round;stroke-dasharray:none;stroke-dashoffset:0"
       d="m 8.9419523,41.096163 c 3.6308957,-2.919792 4.6448397,-8.614741 6.2692477,-12.64925 -2.801317,10.714394 -1.774025,29.018574 -1.546928,31.823371 0.227096,2.804797 -3.372542,4.167692 -5.5932107,1.496924 -2.220667,-2.67077 1.419388,-10.419066 1.419388,-10.419066"
       id="path10"
       sodipodi:nodetypes="cczzc" /></g></svg>
