<?xml version="1.0" encoding="UTF-8" standalone="no"?>
<!-- Created with Inkscape (http://www.inkscape.org/) -->

<svg
   width="48"
   height="48"
   viewBox="0 0 12.7 12.7"
   version="1.1"
   id="svg1"
   inkscape:version="1.3.2 (091e20e, 2023-11-25, custom)"
   sodipodi:docname="JMart_logo.dvg.svg"
   xmlns:inkscape="http://www.inkscape.org/namespaces/inkscape"
   xmlns:sodipodi="http://sodipodi.sourceforge.net/DTD/sodipodi-0.dtd"
   xmlns="http://www.w3.org/2000/svg"
   xmlns:svg="http://www.w3.org/2000/svg">
  <sodipodi:namedview
     id="namedview1"
     pagecolor="#ffffff"
     bordercolor="#000000"
     borderopacity="0.25"
     inkscape:showpageshadow="2"
     inkscape:pageopacity="0.0"
     inkscape:pagecheckerboard="0"
     inkscape:deskcolor="#d1d1d1"
     inkscape:document-units="mm"
     inkscape:zoom="11.313709"
     inkscape:cx="38.183766"
     inkscape:cy="25.323262"
     inkscape:window-width="1920"
     inkscape:window-height="1017"
     inkscape:window-x="-8"
     inkscape:window-y="-8"
     inkscape:window-maximized="1"
     inkscape:current-layer="layer1"
     showguides="true" />
  <defs
     id="defs1" />
  <g
     inkscape:label="Camada 1"
     inkscape:groupmode="layer"
     id="layer1">
    <g
       inkscape:groupmode="layer"
       id="layer2"
       inkscape:label="Camada 2" />
    <g
       id="g32">
      <path
         style="fill:none;fill-opacity:1;stroke:#cdb4db;stroke-width:0.0751141;stroke-dasharray:none;stroke-opacity:1"
         d="M 7.0902697,5.9903369 11.872137,3.1187921 c 0,0 -0.0467,-0.3529402 0.101569,-0.3573886 0.148274,-0.00417 0.323562,0.1404133 0.285202,0.3081263 -0.03836,0.1677173 -0.386779,0.049166 -0.386779,0.049166 z"
         id="path18"
         sodipodi:nodetypes="cczzcc" />
      <path
         style="fill:none;fill-opacity:1;stroke:#cdb4db;stroke-width:0.0751141;stroke-dasharray:none;stroke-opacity:1"
         d="M 7.0902697,5.9903369 10.969262,1.766242 c 0,0 -0.08606,-0.4040387 0.07431,-0.3938148 0.160369,0.010266 0.254434,0.1258411 0.2516,0.2893728 -0.0028,0.1635317 -0.325897,0.1045004 -0.325897,0.1045004 z"
         id="path19"
         sodipodi:nodetypes="cczzcc" />
      <path
         style="fill:none;fill-opacity:1;stroke:#cdb4db;stroke-width:0.0751141;stroke-dasharray:none;stroke-opacity:1"
         d="M 7.0902697,5.9903369 9.7728141,1.090549 c 0,0 -0.1944687,-0.34366027 -0.049083,-0.38630838 C 9.869117,0.66159252 10.044057,0.78961192 10.103145,0.93611447 10.162235,1.0826203 9.7728141,1.090549 9.7728141,1.090549 Z"
         id="path20"
         sodipodi:nodetypes="cczzcc" />
      <path
         style="fill:none;fill-opacity:1;stroke:#cdb4db;stroke-width:0.0751141;stroke-dasharray:none;stroke-opacity:1"
         d="M 7.0902697,5.9903369 8.3280673,0.7068596 c 0,0 -0.2695002,-0.30807292 -0.1135208,-0.35721172 0.1559794,-0.0491413 0.2995684,-0.0330919 0.3623328,0.12624425 0.062762,0.15933617 -0.2488112,0.23093075 -0.2488112,0.23093075 z"
         id="path21"
         sodipodi:nodetypes="cczzcc" />
      <path
         style="fill:#eaf2d7;fill-opacity:1;stroke-width:0.220821"
         d="m 9.1338311,4.3609037 c -0.6905755,0.2316602 -1.416786,0.861158 -1.416786,0.861158 0,0 1.3848325,0.071609 1.9305672,-0.2962917 0.5457337,-0.3679505 1.1079787,-1.6414765 1.1079787,-1.6414765 0,0 -2.3082567,0.044067 -2.610924,0.4493659 C 7.841999,4.139 7.6606294,5.0100731 7.6606294,5.0100731 c 0,0 0.8677071,-0.2314432 1.2401452,-0.797745 C 9.273212,3.6464018 8.5789825,1.5801593 8.5789825,1.5801593 c 0,0 -1.5955033,1.1634338 -1.6393432,1.8976698 -0.043842,0.7342402 0.5437392,1.3868147 0.5437392,1.3868147 0,0 0.1217332,-0.153408 0.3632684,-0.7179988 0.2415335,-0.5645742 -0.804981,-3.20316935 -0.804981,-3.20316935 0,0 -3.0845558,2.42694865 0.012277,4.84032255 C 10.15078,8.1971721 12.176477,4.3170788 12.176477,4.3170788 Z"
         id="path22"
         sodipodi:nodetypes="cczczczczczczcc" />
      <path
         style="fill:#cdb4db;fill-opacity:1;stroke-width:0.326915"
         d="m 3.4737693,9.4306957 c 0,0 -0.9895789,-0.625258 -1.8934083,-0.094677 -0.3970764,0.2331208 -0.1468397,1.3228093 -0.1183556,1.7142533 0.06176,0.849048 -0.72986439,1.421209 -0.66384913,1.414615 0,0 2.54666973,-0.240749 3.10090903,-0.893966 0.5542384,-0.653217 0.00125,-1.6895156 0.00125,-1.6895156 L 7.008559,6.7601896 c 0,0 1.7337441,0.892347 2.8894478,0.4106821 C 11.05371,6.6892067 11.595358,5.7091014 11.595358,5.7091014 10.763894,5.2789231 8.408416,5.583302 8.4518269,6.3605242 c 0,0 0.3129061,-0.101813 0.8891914,-0.4970883 C 9.9173028,5.4681521 9.5837411,4.211652 9.5837411,4.211652 c 0,0 -1.9352819,0.071025 -2.1599122,0.8805458 C 7.1991985,5.901694 7.272358,5.7526509 7.272358,5.7526509 c 0,0 0.230581,-0.077618 0.6109371,-0.4400266 0.3803568,-0.3624422 -0.024571,-2.1661985 -0.024571,-2.1661985 0,0 -1.4605917,0.4202633 -1.6319937,0.8951262 -0.1714021,0.4748629 -0.022651,1.1492956 -0.022651,1.1492956 0,0 0.1758379,0.2121306 0.5220162,-0.514665 C 7.0722749,3.9493703 5.8591682,1.6338075 5.8591682,1.6338075 c 0,0 -1.4874325,1.774491 0.1556548,4.2550336 z"
         id="path23"
         sodipodi:nodetypes="cssczcczcczczczczczccc" />
      <path
         style="fill:#eaf2d7;fill-opacity:1;stroke-width:0.150742"
         d="m 2.357513,9.8740941 c 0.3748786,-0.1096165 1.2418871,0.4420299 1.1112504,1.0474909 -0.1306376,0.605461 -1.5940069,0.742353 -1.5940069,0.742353 0,0 0.2218152,-0.46812 0.2151559,-0.792821 C 2.0506945,10.438209 1.9826337,9.983719 2.357513,9.8740941 Z"
         id="path24"
         sodipodi:nodetypes="zzcsz" />
      <path
         style="fill:none;fill-opacity:1;stroke:#333333;stroke-width:0.04173;stroke-dasharray:none;stroke-opacity:1"
         d="m 7.008559,6.7601896 c 0,0 2.4642328,1.4586404 4.092301,-0.4169583"
         id="path25" />
      <path
         style="fill:none;fill-opacity:1;stroke:#333333;stroke-width:0.025038;stroke-dasharray:none;stroke-opacity:1"
         d="M 7.6555742,3.5240744 C 7.5469275,3.6549565 6.7721365,4.9295841 6.8158079,6.0619791"
         id="path26"
         sodipodi:nodetypes="cc" />
      <path
         style="fill:none;fill-opacity:1;stroke:#333333;stroke-width:0.025038;stroke-dasharray:none;stroke-opacity:1"
         d="m 9.3416701,4.5388323 c 0,0 -0.5727549,1.2214218 -1.7872738,1.6078504"
         id="path27"
         sodipodi:nodetypes="cc" />
      <path
         style="fill:#a2d2ff;fill-opacity:1;stroke:#000000;stroke-width:0.025038;stroke-dasharray:none;stroke-opacity:0"
         d="m 3.4691982,9.4314051 c 0,0 0.1824254,0.097022 0.2470794,0.1970493 0.064648,0.1000352 0.1842006,0.2598363 0.1842006,0.2598363 L 4.1822704,9.5991849 c 0,0 -0.1707827,-0.240315 -0.2244584,-0.2854586 C 3.9041388,9.2685744 3.667481,9.1612447 3.667481,9.1612447 Z"
         id="path28" />
      <path
         style="fill:none;fill-opacity:1;stroke:#333333;stroke-width:0.04173;stroke-dasharray:none;stroke-opacity:1"
         d="m 3.667481,9.1612447 c 0.1671714,0.071943 0.3323456,0.1104929 0.5147894,0.4379402 L 7.008559,6.7601896"
         id="path29"
         sodipodi:nodetypes="ccc" />
    </g>
  </g>
</svg>
