<?xml version="1.0" encoding="UTF-8" standalone="no"?>
<!-- Created with Inkscape (http://www.inkscape.org/) -->

<svg
   width="34.669071mm"
   height="19.641493mm"
   viewBox="0 0 34.669071 19.641493"
   version="1.1"
   id="svg1"
   xml:space="preserve"
   inkscape:version="1.3.2 (091e20e, 2023-11-25, custom)"
   sodipodi:docname="julia2.svg"
   xmlns:inkscape="http://www.inkscape.org/namespaces/inkscape"
   xmlns:sodipodi="http://sodipodi.sourceforge.net/DTD/sodipodi-0.dtd"
   xmlns="http://www.w3.org/2000/svg"
   xmlns:svg="http://www.w3.org/2000/svg"><sodipodi:namedview
     id="namedview1"
     pagecolor="#ffffff"
     bordercolor="#000000"
     borderopacity="0.25"
     inkscape:showpageshadow="2"
     inkscape:pageopacity="0.0"
     inkscape:pagecheckerboard="0"
     inkscape:deskcolor="#d1d1d1"
     inkscape:document-units="mm"
     inkscape:zoom="1.0343421"
     inkscape:cx="64.775475"
     inkscape:cy="222.84697"
     inkscape:window-width="1920"
     inkscape:window-height="1017"
     inkscape:window-x="-8"
     inkscape:window-y="-8"
     inkscape:window-maximized="1"
     inkscape:current-layer="layer1"
     showguides="true"><sodipodi:guide
       position="-2.2265951,306.31758"
       orientation="0,-1"
       id="guide2"
       inkscape:locked="false" /></sodipodi:namedview><defs
     id="defs1" /><g
     inkscape:label="Camada 1"
     inkscape:groupmode="layer"
     id="layer1"
     transform="translate(-47.141843,-32.719436)"><path
       style="font-size:7.40833px;font-family:'Roboto Mono';-inkscape-font-specification:'Roboto Mono';letter-spacing:0.132292px;fill:#ffffff;fill-opacity:1;stroke-width:1.85976;stroke-linecap:round;stroke-linejoin:round"
       d="M 76.156178,32.719436 H 73.8343 v 6.145524 h -5.159325 v 2.159304 H 73.8343 v 5.666309 c 0,1.006665 0.108332,1.867369 0.324391,2.582103 0.22465,0.704668 0.528478,1.278468 0.911283,1.721404 0.382805,0.453004 0.832223,0.7852 1.348171,0.996602 0.524301,0.201316 1.086049,0.302013 1.685269,0.302013 0.357817,0 0.71568,-0.01996 1.073532,-0.0604 0.366182,-0.04009 0.711563,-0.100689 1.036108,-0.1812 0.324735,-0.07047 0.624173,-0.156043 0.8988,-0.256678 0.274699,-0.110742 0.507631,-0.236559 0.699057,-0.377485 l -0.324379,-1.978107 c -0.141568,0.04009 -0.324392,0.09058 -0.549267,0.150988 -0.216379,0.05035 -0.449406,0.100689 -0.69908,0.150988 -0.258134,0.05035 -0.520124,0.09562 -0.786434,0.135907 -0.266404,0.03006 -0.524301,0.0453 -0.773939,0.0453 -0.3413,0 -0.665786,-0.05034 -0.973708,-0.150988 -0.299544,-0.100641 -0.565889,-0.276843 -0.79894,-0.528506 -0.23292,-0.24161 -0.416111,-0.568778 -0.54923,-0.981498 -0.133131,-0.412715 -0.199804,-0.936204 -0.199804,-1.570402 v -5.666337 h 5.143081 V 38.86497 H 76.15613 Z"
       id="path16"
       sodipodi:nodetypes="ccccccscccsccccccccsccssccccc"
       inkscape:export-filename="..\GitHub\JuliaMeloArt\layout_images\svg\pontoart_preto.svg"
       inkscape:export-xdpi="96"
       inkscape:export-ydpi="96" /><path
       style="font-size:7.40833px;font-family:'Roboto Mono';-inkscape-font-specification:'Roboto Mono';letter-spacing:0.132292px;fill:#ffffff;fill-opacity:1;stroke-width:1.99406;stroke-linecap:round;stroke-linejoin:round"
       d="m 70.49887,34.499349 c -1.052921,0 -1.994283,0.280629 -2.82414,0.841899 -0.820919,0.550473 -1.525855,1.306024 -2.114767,2.26665 l -0.01382,-0.437146 c 0,-1.038678 -0.467666,-2.594714 -1.189006,-3.752528 l -2.772464,1.795017 c 2.053597,2.988252 1.498621,6.149605 1.498621,13.165903 v 3.961985 h 2.489538 V 41.105013 c 0,-0.922108 1.146338,-2.270625 1.472302,-2.574265 0.325964,-0.30364 0.794161,-0.604443 1.284926,-0.77714 0.490769,-0.183509 1.039537,-0.275258 1.646304,-0.275258 0.472911,0 0.923528,0.03224 1.351837,0.09712 0.437232,0.054 0.896771,0.145714 1.378606,0.275258 l 0.334607,-2.930456 c -0.249816,-0.12952 -0.6246,-0.232076 -1.124304,-0.307622 -0.49077,-0.07557 -0.963693,-0.113318 -1.418759,-0.113318 z"
       id="path15"
       sodipodi:nodetypes="cccccccccczcscccccc" /><path
       style="font-size:7.40833px;font-family:'Roboto Mono';-inkscape-font-specification:'Roboto Mono';letter-spacing:0.132292px;fill:#ffffff;fill-opacity:1;stroke-width:1.94745;stroke-linecap:round;stroke-linejoin:round"
       d="M 59.698934,52.118834 H 62.22178 V 51.86583 c -0.156859,-0.474355 -0.278864,-1.027772 -0.366005,-1.660251 -0.08712,-0.643022 -0.130707,-1.249146 -0.130707,-1.818374 v -7.953417 c 0,-3.918542 -1.467561,-5.739743 -4.587654,-5.739743 -3.524693,0 -6.645472,2.581188 -6.680196,5.059824 h 2.431344 c 0,-1.415856 2.178013,-2.70383 4.118139,-2.70383 1.656995,0 2.30009,1.254201 2.30009,3.352137 v 1.344011 h -2.204188 c -1.597159,0 -3.828035,0.580071 -5.155212,1.666805 -1.041129,0.871884 -1.777756,1.931147 -1.777756,3.962244 0,0.716811 0.113291,1.386182 0.339862,2.008122 1.0012,2.417802 2.81029,2.948486 4.909279,2.977567 2.303756,-0.02492 3.927227,-2.335083 3.927227,-2.335083 0,0 0.06537,0.933428 0.117646,1.270751 0.061,0.326785 0.139404,0.60085 0.235284,0.822221 z M 55.42447,49.88935 c -0.470585,0 -0.884522,-0.07379 -1.241815,-0.221355 -1.350786,-0.557921 -1.59477,-1.570654 -1.59477,-2.428488 0,-0.611118 0.114859,-1.42671 0.797374,-2.087177 0.806383,-0.789605 2.009952,-1.334781 3.673164,-1.334781 h 2.24834 c 0,3.19466 -0.872818,5.976158 -3.882311,6.071779 z"
       id="path14"
       sodipodi:nodetypes="ccccsssccsscscsccccsccsscsccc" /><path
       style="font-size:7.40833px;font-family:'Roboto Mono';-inkscape-font-specification:'Roboto Mono';letter-spacing:0.132292px;fill:#ffffff;stroke-width:1.2034;stroke-linecap:round;stroke-linejoin:round"
       d="m 47.141843,50.860432 c 0,0.265247 0.06702,1.358142 1.171242,1.358142 0.926075,0 1.187394,-0.798141 1.187394,-1.358142 0,-0.521832 -0.235344,-1.397224 -1.187394,-1.397224 -1.114303,0 -1.171242,1.160092 -1.171242,1.397224 z"
       id="text2" /></g></svg>
