<?xml version="1.0" encoding="UTF-8" standalone="no"?>
<!-- Created with Inkscape (http://www.inkscape.org/) -->

<svg
   width="97.645401mm"
   height="97.8955mm"
   viewBox="0 0 97.645401 97.8955"
   version="1.1"
   id="svg1"
   xml:space="preserve"
   xmlns:inkscape="http://www.inkscape.org/namespaces/inkscape"
   xmlns:sodipodi="http://sodipodi.sourceforge.net/DTD/sodipodi-0.dtd"
   xmlns="http://www.w3.org/2000/svg"
   xmlns:svg="http://www.w3.org/2000/svg"><sodipodi:namedview
     id="namedview1"
     pagecolor="#ffffff"
     bordercolor="#000000"
     borderopacity="0.25"
     inkscape:showpageshadow="2"
     inkscape:pageopacity="0.0"
     inkscape:pagecheckerboard="0"
     inkscape:deskcolor="#d1d1d1"
     inkscape:document-units="mm" /><defs
     id="defs1" /><g
     inkscape:label="Camada 1"
     inkscape:groupmode="layer"
     id="layer1"
     transform="translate(-52.924073,-20.911594)"><path
       style="fill:#ffffff;stroke:none"
       d="m 52.924076,118.80709 c 6.217892,-0.50786 12.780505,-3.25188 18.833074,-4.78488 1.986595,-0.50316 4.708734,-1.82179 6.755342,-1.67177 1.302694,0.0955 2.893855,1.25038 4.094146,1.77681 2.310142,1.01322 4.726198,1.81138 7.164757,2.45176 8.756514,2.29948 18.411085,2.0315 27.021365,-0.77492 7.44584,-2.42689 14.33511,-6.56713 19.85582,-12.14534 4.53651,-4.583742 8.1466,-10.183192 10.52253,-16.171882 2.26105,-5.69913 3.39836,-11.68774 3.39836,-17.809544 0,-7.16172 -1.36168,-14.14019 -4.36204,-20.67544 -12.42653,-27.06693 -47.046827,-36.384948 -71.584377,-19.92405 -5.801529,3.89192 -10.833513,9.21601 -14.410543,15.21579 -6.402714,10.73931 -8.518002,23.82849 -5.72217,36.028494 0.704401,3.07374 1.686254,6.1369 3.000478,9.00712 0.630273,1.37649 2.068688,3.16621 2.083561,4.70827 0.02082,2.15877 -1.211955,4.67669 -1.76102,6.755342 -1.581433,5.98696 -3.634829,11.95273 -4.889283,18.01424 m 11.668318,-11.46361 c 0.513271,-3.48854 1.812584,-7.04735 2.77966,-10.440072 0.345216,-1.2111 1.296766,-3.16213 1.075662,-4.41669 -0.241886,-1.37247 -1.692378,-2.94823 -2.35919,-4.18102 -1.226487,-2.26751 -2.162598,-4.7054 -2.923872,-7.16476 -3.431078,-11.084354 -1.562025,-23.303334 4.385729,-33.162584 2.71352,-4.49805 6.485571,-8.43015 10.757402,-11.46346 4.286793,-3.04392 9.022858,-5.2151 14.124805,-6.47418 18.26927,-4.50854 38.29278,4.80716 46.20067,22.03178 4.01078,8.7361 4.7978,18.54324 2.44306,27.840204 -1.4728,5.81491 -4.4288,11.18258 -8.266,15.76246 -4.20448,5.018262 -9.74247,8.943462 -15.81285,11.371692 -8.71318,3.48538 -18.488362,3.69056 -27.430783,0.96793 -2.272418,-0.69186 -4.444388,-1.68417 -6.550634,-2.77128 -0.989743,-0.51085 -2.147434,-1.52854 -3.275317,-1.6424 -1.389299,-0.14025 -3.172345,0.69012 -4.503561,1.05023 -3.45934,0.93578 -7.09606,2.21429 -10.644781,2.69215 M 83.834882,47.063174 c -1.818123,0.41958 -3.057934,1.93673 -4.109783,3.37167 -3.664338,4.99891 -2.762121,11.37065 -0.138368,16.58129 5.227677,10.381904 14.973215,19.271624 25.742419,23.499804 4.31138,1.69272 9.34929,3.33364 13.9201,1.58491 3.7474,-1.43372 9.30495,-6.13998 7.21751,-10.922 -0.41886,-0.95956 -1.84539,-1.39545 -2.71395,-1.82973 -2.51948,-1.25974 -6.13618,-3.85603 -9.00712,-3.91187 -3.12975,-0.0609 -4.0808,6.9264 -7.36947,6.12369 -4.23564,-1.03386 -8.345586,-4.32092 -11.460604,-7.21008 -1.959572,-1.8175 -5.504639,-5.408264 -5.991322,-8.153554 -0.368533,-2.07883 3.250725,-4.32995 3.805406,-6.34593 0.437445,-1.5899 -1.00235,-3.6913 -1.583006,-5.11768 -0.839476,-2.06216 -1.680751,-6.15585 -3.612389,-7.42222 -1.055129,-0.69174 -3.506578,-0.52358 -4.699423,-0.2483 z"
       id="path1" /></g></svg>
